<svg xmlns="http://www.w3.org/2000/svg" viewBox="0 0 200 200" width="200" height="200">
    <!-- Background -->
    <rect width="200" height="200" rx="20" fill="#f4f4f4"/>

    <!-- Gear -->
    <circle cx="100" cy="100" r="45" fill="#3f51b5"/>
    <circle cx="100" cy="100" r="40" fill="white"/>

    <!-- Gear Teeth -->
    <rect x="100" y="10" width="10" height="30" transform="rotate(0 100 100)" fill="#3f51b5"/>
    <rect x="100" y="10" width="10" height="30" transform="rotate(45 100 100)" fill="#3f51b5"/>
    <rect x="100" y="10" width="10" height="30" transform="rotate(90 100 100)" fill="#3f51b5"/>
    <rect x="100" y="10" width="10" height="30" transform="rotate(135 100 100)" fill="#3f51b5"/>
    <rect x="100" y="10" width="10" height="30" transform="rotate(180 100 100)" fill="#3f51b5"/>
    <rect x="100" y="10" width="10" height="30" transform="rotate(225 100 100)" fill="#3f51b5"/>
    <rect x="100" y="10" width="10" height="30" transform="rotate(270 100 100)" fill="#3f51b5"/>
    <rect x="100" y="10" width="10" height="30" transform="rotate(315 100 100)" fill="#3f51b5"/>

    <!-- Slider 1 (Custom Settings) -->
    <rect x="20" y="160" width="50" height="10" fill="#e0e0e0" rx="5"/>
    <rect x="20" y="160" width="30" height="10" fill="#3f51b5" rx="5"/>
    <circle cx="50" cy="165" r="5" fill="#3f51b5"/>

    <!-- Slider 2 (Color Adjustment) -->
    <rect x="70" y="160" width="50" height="10" fill="#e0e0e0" rx="5"/>
    <rect x="70" y="160" width="40" height="10" fill="#ff4081" rx="5"/>
    <circle cx="110" cy="165" r="5" fill="#ff4081"/>

    <!-- Paint Palette -->
    <circle cx="155" cy="130" r="25" fill="#ffeb3b"/>
    <circle cx="145" cy="120" r="5" fill="#e57373"/>
    <circle cx="160" cy="115" r="5" fill="#81c784"/>
    <circle cx="165" cy="135" r="5" fill="#64b5f6"/>
    <circle cx="150" cy="145" r="5" fill="#ffb74d"/>

    <!-- Brush Icon -->
    <rect x="165" y="160" width="10" height="30" rx="3" fill="#ff9800"/>
    <rect x="165" y="160" width="10" height="10" rx="3" fill="#ffffff"/>
    <path d="M170,160 L170,150" stroke="#ffffff" stroke-width="2"/>

</svg>
